# xmcd CD database file
#
# Track frame offsets:
#	150
#	13834
#	28514
#	43561
#	57851
#	71687
#	83738
#	96723
#	108778
#	122903
#	136228
#	153560
#	168818
#	184006
#	199136
#
# Disc length: 2853 seconds
#
# Revision: 0
# Processed by: cddbd v1.5.2PL0 Copyright (c) Steve Scherf et al.
# Submitted via: CDex 1.51
#
DISCID=c80b230f
DTITLE=Marc Pircher - Sternenstaub
DYEAR=2008
DGENRE=Volksmusik
TTITLE0=Sternenstaub
TTITLE1=Heute oder nie
TTITLE2=So wird es immer sein
TTITLE3=Du bist a echte Traumfrau
TTITLE4=Mei Diandl is a Kind vom Land
TTITLE5=Herzerl Superstar
TTITLE6=Ich kann Dich sehn 
TTITLE7=Gemma Musig machen
TTITLE8=Mach was Du willst mit mir
TTITLE9=Da drobn in die Berg is der Herrgott dahoam
TTITLE10=Zruck zu Dir(Hallo Maus)
TTITLE11=Ibiza
TTITLE12=Ueber den Wolken
TTITLE13=Eine neue Liebe ist wie ein neues Leben
TTITLE14=Die Heimat im Herzen und Du
EXTD=YEAR: 2008
EXTT0=
EXTT1=
EXTT2=
EXTT3=
EXTT4=
EXTT5=
EXTT6=
EXTT7=
EXTT8=
EXTT9=
EXTT10=
EXTT11=
EXTT12=
EXTT13=
EXTT14=
PLAYORDER=
